<?xml version="1.0" encoding="UTF-8" standalone="no"?>
<!-- Created with Inkscape (http://www.inkscape.org/) -->

<svg
   xmlns:dc="http://purl.org/dc/elements/1.1/"
   xmlns:cc="http://creativecommons.org/ns#"
   xmlns:rdf="http://www.w3.org/1999/02/22-rdf-syntax-ns#"
   xmlns:svg="http://www.w3.org/2000/svg"
   xmlns="http://www.w3.org/2000/svg"
   version="1.1"
   width="22.280001cm"
   height="13.55cm"
   viewBox="0 0 22280 13550"
   id="svg3159"
   style="fill-rule:evenodd">
  <metadata
     id="metadata3331">
    <rdf:RDF>
      <cc:Work
         rdf:about="">
        <dc:format>image/svg+xml</dc:format>
        <dc:type
           rdf:resource="http://purl.org/dc/dcmitype/StillImage" />
        <dc:title></dc:title>
      </cc:Work>
    </rdf:RDF>
  </metadata>
  <defs
     id="defs3329" />
  <g
     id="Default"
     style="visibility:visible">
    <desc
       id="desc3162">Master slide</desc>
  </g>
  <g
     id="page1"
     style="visibility:visible">
    <desc
       id="desc3165">Slide</desc>
    <g
       id="g3167">
      <desc
         id="desc3169">Group</desc>
      <g
         id="g3171">
        <desc
           id="desc3173">Group</desc>
        <g
           id="g3175">
          <desc
             id="desc3177">Group</desc>
          <g
             id="g3179">
            <desc
               id="desc3181">Group</desc>
            <g
               id="g3183">
              <desc
                 id="desc3185">Drawing</desc>
              <g
                 id="g3187">
                <g
                   id="g3189"
                   style="fill:#1b448e;stroke:none">
                  <path
                     d="m 0,6773 15,-349 43,-344 168,-673 275,-649 375,-622 469,-592 558,-559 642,-521 719,-481 792,-437 858,-390 919,-339 974,-285 1024,-228 1068,-166 1107,-103 1139,-35 1137,35 1105,103 1067,166 1022,228 973,285 918,339 857,390 791,437 719,481 641,521 558,559 469,592 375,622 275,649 168,673 43,344 15,349 -15,348 -43,343 -168,671 -275,648 -375,622 -469,591 -558,559 -641,521 -719,482 -791,437 -857,391 -918,340 -973,285 -1022,229 -1067,167 -1105,103 -1137,35 -1139,-35 -1107,-103 -1068,-167 -1024,-229 -974,-285 -919,-340 -858,-391 -792,-437 -719,-482 -642,-521 L 1345,9996 876,9405 501,8783 226,8135 58,7464 15,7121 0,6773 z"
                     id="path3191" />
                </g>
                <g
                   id="g3193" />
              </g>
            </g>
            <g
               id="g3195">
              <desc
                 id="desc3197">Drawing</desc>
              <g
                 id="g3199">
                <g
                   id="g3201"
                   style="fill:#ffffff;stroke:none">
                  <path
                     d="m 18844,5656 -7,-111 -15,-108 -22,-104 -28,-101 -69,-195 -79,-189 -78,-187 -69,-188 -28,-96 -22,-98 -15,-101 -7,-103 93,-72 23,-20 22,-20 21,-20 19,-22 22,-28 21,-31 9,-17 8,-17 8,-18 6,-18 5,-19 3,-19 2,-19 -1,-19 -2,-20 -5,-20 -7,-20 -10,-20 -14,-13 -14,-11 -8,-6 -8,-4 -8,-4 -8,-4 -9,-3 -8,-3 -9,-1 -9,-2 -9,0 -8,0 -9,1 -9,2 -28,12 -25,14 -24,16 -21,17 -19,18 -18,20 -16,20 -14,21 -26,45 -21,46 -38,92 -867,1058 -116,-12 -57,-2 -57,1 -57,4 -56,8 -55,10 -54,14 -53,18 -51,20 -50,24 -49,28 -47,31 -45,35 -44,39 -41,43 -46,49 -41,53 -36,56 -31,60 -27,62 -21,65 -16,67 -12,68 -7,68 -3,70 2,70 6,69 10,68 15,68 18,65 23,64 -274,285 -298,260 -78,60 -77,52 -38,22 -39,19 -38,15 -38,11 -13,2 -14,1 -13,0 -13,-1 -12,-1 -12,-2 -12,-4 -12,-3 -10,-5 -11,-6 -9,-7 -9,-7 -8,-8 -7,-9 -6,-10 -5,-11 -9,-25 -7,-24 -3,-25 -1,-25 1,-26 3,-25 5,-25 7,-25 16,-50 20,-49 39,-93 1236,-3030 1865,-225 226,-404 -1853,0 178,-404 -511,23 -166,357 -6785,0 167,154 59,62 54,66 47,70 42,72 36,75 31,77 26,80 21,80 16,82 11,83 7,83 2,83 -2,82 -6,82 -24,159 2804,-309 3149,-345 -404,797 -119,-48 -111,-48 -114,-36 -116,-26 -118,-16 -119,-7 -120,2 -120,11 -119,18 -118,25 -116,32 -114,37 -110,43 -209,100 -190,115 -123,-41 -123,-29 -124,-18 -123,-8 -124,1 -122,11 -122,18 -120,27 -119,33 -117,40 -228,96 -216,113 -204,125 -10,-33 -12,-34 -15,-32 -16,-32 -18,-32 -20,-30 -22,-29 -24,-28 -25,-26 -27,-24 -28,-21 -30,-20 -31,-17 -33,-14 -34,-12 -35,-8 -80,-15 -81,-6 -80,3 -79,11 -78,17 -77,23 -75,28 -73,33 -138,73 -127,79 -206,146 -20,-14 -23,-15 -53,-29 -56,-27 -50,-22 -34,-12 -34,-10 -35,-8 -36,-6 -36,-4 -37,-3 -73,1 -73,8 -73,14 -71,19 -68,25 86,-154 40,-78 38,-80 33,-81 30,-82 26,-83 20,-84 12,-93 6,-93 0,-92 -7,-91 -13,-90 -20,-89 -25,-86 -31,-85 -37,-82 -42,-80 -48,-77 -53,-74 -59,-72 -63,-67 -69,-64 -73,-60 23,-26 23,-24 51,-45 53,-41 55,-38 112,-72 56,-36 54,-39 0,0 0,0 0,0 0,0 0,0 1,0 1,-1 5,-3 3,-3 4,-3 4,-4 3,-4 3,-5 3,-5 2,-6 1,-6 1,-7 -1,-7 -2,-8 -4,-9 -2,-6 -3,-5 -3,-5 -3,-3 -3,-3 -4,-2 -4,-2 -3,-1 -8,-2 -9,-1 -4,-1 -4,-1 -5,-2 -4,-2 -92,23 -94,32 -94,37 -90,41 -160,80 -112,61 -218,-76 -227,-61 -233,-44 -236,-29 -240,-14 -239,1 -238,15 -234,29 -361,83 -352,108 -341,135 -328,163 -313,192 -297,223 -279,256 -260,290 -97,144 -89,154 -78,162 -32,83 -27,85 -20,86 -15,86 -6,87 1,87 10,87 20,87 30,86 41,85 35,43 37,41 39,39 42,36 43,33 46,30 47,27 49,24 50,20 52,18 53,13 54,10 55,5 56,2 57,-2 58,-7 37,-10 37,-14 35,-15 35,-19 33,-21 32,-23 31,-25 29,-27 27,-28 26,-31 24,-31 23,-33 20,-33 19,-35 17,-35 14,-35 -64,-16 -64,-21 -64,-26 -31,-16 -29,-18 -28,-19 -27,-21 -24,-23 -23,-26 -19,-27 -17,-30 -14,-32 -11,-34 -6,-79 -1,-78 5,-75 10,-74 14,-72 18,-71 23,-69 26,-68 62,-131 73,-126 81,-121 87,-118 230,-230 245,-200 259,-172 271,-143 283,-116 294,-88 304,-61 312,-35 221,12 108,11 105,17 100,26 48,17 46,19 45,23 43,26 41,29 39,34 -475,297 -236,193 -217,210 -202,225 -189,236 -178,244 -168,248 -319,497 -89,-7 -89,-3 -87,1 -86,7 -84,14 -80,20 -39,12 -39,15 -37,17 -36,19 -22,14 -21,15 -20,16 -19,17 -18,18 -17,19 -16,19 -14,20 -13,21 -12,22 -11,22 -9,23 -8,23 -6,24 -5,24 -3,24 2,42 7,40 11,40 14,38 18,37 21,35 24,34 26,33 29,31 30,29 64,54 67,47 68,39 -48,131 -547,1188 -118,251 -59,118 -29,55 -31,51 -120,-43 -63,-19 -65,-15 -67,-11 -68,-6 -34,0 -35,2 -36,3 -35,6 -67,8 -66,15 -66,21 -64,27 -63,33 -62,38 -59,42 -56,47 -54,50 -50,53 -47,57 -43,59 -38,61 -34,62 -28,64 -23,64 -28,81 -21,82 -15,83 -9,83 -3,83 3,83 9,83 14,82 19,80 25,80 29,77 34,76 39,73 43,70 48,68 51,64 -30,41 -32,40 -70,75 -77,67 -82,62 -87,54 -90,48 -92,42 -94,34 -136,28 -73,12 -74,6 -38,1 -37,-2 -36,-3 -35,-7 -35,-10 -33,-12 -31,-17 -30,-20 45,-6 44,-10 43,-13 42,-17 40,-21 20,-12 19,-13 18,-14 17,-15 17,-16 16,-17 17,-16 16,-18 15,-19 14,-21 12,-21 11,-22 9,-22 8,-23 7,-23 5,-23 3,-22 1,-23 0,-21 -2,-21 -3,-20 -6,-18 -6,-29 -9,-28 -11,-28 -14,-27 -16,-26 -19,-26 -20,-24 -21,-23 -23,-21 -24,-20 -25,-19 -26,-16 -27,-15 -26,-13 -27,-10 -27,-8 -31,-8 -32,-6 -31,-4 -32,-2 -32,0 -31,1 -31,3 -31,5 -30,6 -30,8 -30,10 -28,11 -28,13 -27,14 -26,16 -25,17 -32,21 -31,23 -27,26 -26,27 -23,29 -20,30 -18,32 -15,33 -13,35 -10,35 -7,37 -4,38 -1,38 1,39 5,39 7,40 7,46 11,44 16,43 20,41 23,39 27,37 30,35 32,33 34,31 37,30 38,27 39,25 80,44 81,36 116,32 115,20 115,9 115,0 113,-10 111,-18 110,-25 108,-31 209,-79 198,-95 184,-103 169,-104 182,99 175,83 87,36 88,33 89,30 92,28 178,38 177,25 177,12 174,-1 172,-14 170,-26 167,-37 163,-50 160,-62 155,-73 150,-84 145,-95 140,-106 133,-117 126,-128 120,-137 121,-150 109,-159 96,-168 84,-175 71,-181 58,-187 46,-190 33,-193 21,-195 7,-196 -6,-196 -18,-194 -32,-191 -45,-188 -58,-183 -71,-177 -55,-133 -59,-133 -123,-257 134,-57 133,-63 267,-129 131,-64 125,-73 121,-82 118,-86 232,-178 117,-88 119,-83 78,-29 83,-25 85,-18 87,-11 43,-2 43,0 43,2 42,6 42,8 41,12 39,15 39,18 -164,172 -154,178 -145,183 -134,188 -124,193 -114,198 -105,202 -94,207 -78,206 -69,216 -56,222 -38,227 -10,113 -4,114 3,113 11,113 20,111 28,110 38,108 48,106 24,37 25,34 28,32 30,30 32,27 34,25 35,23 36,19 37,17 38,15 39,11 40,9 40,6 40,3 41,0 40,-3 147,-24 141,-38 136,-53 131,-66 126,-76 120,-88 116,-96 111,-104 206,-226 186,-243 167,-249 148,-246 233,-458 107,-234 96,-238 81,-244 64,-250 42,-258 18,-267 149,-109 152,-101 158,-92 162,-79 168,-65 86,-25 88,-21 89,-16 91,-11 93,-4 95,1 -203,176 -189,189 -177,200 -163,208 -151,216 -138,222 -126,225 -113,227 -76,183 -65,199 -26,103 -21,106 -15,106 -9,106 -1,106 7,105 16,103 25,101 36,97 47,93 59,89 71,83 30,32 33,28 35,24 37,22 39,18 40,14 42,12 43,9 43,6 43,3 44,0 44,-2 43,-5 43,-8 42,-10 41,-12 146,-57 141,-71 135,-85 128,-97 122,-109 116,-119 108,-127 102,-135 94,-142 87,-147 150,-306 119,-313 84,-312 26,-168 15,-172 1,-173 -6,-86 -10,-86 -16,-85 -20,-83 -26,-82 -32,-79 -38,-78 -45,-75 -51,-71 -59,-69 65,-47 55,-38 49,-30 45,-28 76,-44 80,-39 83,-33 86,-28 89,-22 90,-17 92,-11 92,-5 91,1 91,7 90,12 87,19 85,25 82,31 78,37 74,44 -843,1877 -32,83 -29,87 -26,89 -18,92 -5,45 -3,46 1,45 4,44 9,44 12,43 17,42 22,41 16,28 18,25 20,24 20,22 22,20 23,18 24,17 25,15 51,27 53,21 54,18 54,15 120,4 116,-9 112,-22 107,-33 105,-43 100,-52 98,-61 95,-67 182,-150 175,-166 335,-340 37,54 41,50 43,47 46,43 49,39 51,36 53,33 56,29 57,25 59,22 60,19 61,15 63,12 63,8 64,5 64,2 0,12 -9,22 -10,20 -23,39 -25,35 -28,33 -30,30 -32,28 -69,55 -84,58 -85,48 -85,42 -86,36 -86,32 -87,28 -176,53 -4004,950 -2590,630 -143,47 -142,62 -138,75 -67,43 -64,46 -61,50 -59,52 -55,57 -51,59 -47,62 -43,66 -37,69 -32,72 -21,53 -19,56 -16,58 -13,60 -10,62 -6,63 -4,63 1,64 4,63 8,63 13,61 17,60 22,57 27,55 32,52 37,49 24,-38 26,-36 29,-32 31,-29 31,-27 32,-23 32,-22 32,-19 7070,-2198 425,-139 104,-40 103,-44 101,-51 99,-58 79,-52 72,-57 66,-61 60,-66 56,-69 50,-73 90,-153 79,-160 71,-163 137,-323 0,0 0,0 0,0 0,0 0,0 0,0 1,0 3,0 4,-1 6,0 5,-2 3,-1 3,-1 3,-1 3,-2 3,-2 2,-2 43,-22 47,-28 93,-63 73,-54 21,-17 6,-4 1,-2 1,0 0,0 0,0 0,0 0,0 65,-48 61,-52 57,-54 53,-57 49,-60 45,-62 41,-64 37,-66 33,-67 29,-70 25,-70 21,-71 17,-72 12,-73 9,-74 4,-73 z"
                     id="path3203" />
                </g>
                <g
                   id="g3205" />
              </g>
            </g>
            <g
               id="g3207">
              <desc
                 id="desc3209">Drawing</desc>
              <g
                 id="g3211">
                <g
                   id="g3213"
                   style="fill:#1b448e;stroke:none">
                  <path
                     d="m 18298,5774 23,-92 18,-92 11,-92 6,-93 -1,-185 -16,-185 -27,-185 -34,-182 -75,-355 -547,737 65,48 60,51 56,53 52,56 47,58 43,60 39,63 35,64 31,66 27,68 23,69 19,70 15,72 11,74 12,149 31,-74 27,-70 24,-71 25,-82 z"
                     id="path3215" />
                </g>
                <g
                   id="g3217" />
              </g>
            </g>
            <g
               id="g3219">
              <desc
                 id="desc3221">Drawing</desc>
              <g
                 id="g3223">
                <g
                   id="g3225"
                   style="fill:#1b448e;stroke:none">
                  <path
                     d="m 17882,6190 9,-64 4,-65 -1,-64 -5,-63 -10,-62 -14,-61 -18,-60 -23,-58 -27,-57 -32,-54 -35,-52 -40,-50 -44,-47 -48,-44 -52,-41 -56,-37 -773,1010 46,56 49,50 52,46 54,41 55,35 57,29 57,23 29,9 29,8 42,10 43,7 43,5 42,2 43,0 42,-2 41,-6 42,-7 40,-10 39,-13 39,-15 37,-18 37,-20 35,-23 33,-25 32,-28 17,-32 16,-34 15,-36 14,-36 25,-74 20,-73 z"
                     id="path3227" />
                </g>
                <g
                   id="g3229" />
              </g>
            </g>
            <g
               id="g3231">
              <desc
                 id="desc3233">Drawing</desc>
              <g
                 id="g3235">
                <g
                   id="g3237"
                   style="fill:#1b448e;stroke:none">
                  <path
                     d="m 17193,5240 -27,-6 -28,-4 -28,-3 -29,-1 -29,1 -29,3 -29,4 -28,6 -29,7 -27,10 -27,11 -26,12 -25,14 -24,16 -22,18 -21,19 -30,32 -28,34 -25,36 -23,38 -20,39 -17,40 -15,42 -11,42 -9,42 -5,43 -2,43 1,43 5,43 8,42 12,41 16,41 571,-748 z"
                     id="path3239" />
                </g>
                <g
                   id="g3241" />
              </g>
            </g>
            <g
               id="g3243">
              <desc
                 id="desc3245">Drawing</desc>
              <g
                 id="g3247">
                <g
                   id="g3249"
                   style="fill:#1b448e;stroke:none">
                  <path
                     d="m 11430,5323 4,-96 1,-50 -2,-49 -3,-23 -4,-23 -7,-21 -9,-21 -11,-18 -14,-17 -8,-7 -9,-8 -21,-12 -22,-11 -22,-8 -20,-4 -21,0 -20,2 -19,5 -19,7 -19,9 -18,11 -18,12 -34,27 -65,57 -234,246 -220,254 -207,263 -193,271 -179,277 -165,283 -151,288 -136,293 -90,194 -44,112 -38,117 -16,60 -12,60 -7,60 -4,60 2,59 7,58 14,56 21,55 7,11 8,10 8,10 8,9 9,8 9,8 10,7 10,7 10,5 10,5 11,5 11,3 11,3 11,2 11,2 11,0 18,4 18,2 36,-1 37,-6 37,-11 36,-16 37,-20 36,-23 36,-26 70,-58 67,-64 118,-126 164,-199 153,-204 144,-208 134,-213 125,-217 116,-221 210,-449 161,-429 70,-217 29,-110 25,-111 z"
                     id="path3251" />
                </g>
                <g
                   id="g3253" />
              </g>
            </g>
            <g
               id="g3255">
              <desc
                 id="desc3257">Drawing</desc>
              <g
                 id="g3259">
                <g
                   id="g3261"
                   style="fill:#1b448e;stroke:none">
                  <path
                     d="m 9078,4111 3,-111 -1,-110 -7,-109 -13,-105 -10,-51 -13,-51 -15,-49 -18,-47 -21,-46 -24,-45 -28,-43 -32,-41 -190,178 -205,235 -190,243 -177,247 -167,252 -615,1031 107,61 48,31 45,33 42,35 40,37 38,42 36,46 392,-225 96,-63 93,-67 88,-72 84,-76 80,-81 75,-84 71,-87 65,-91 60,-94 55,-97 50,-99 44,-102 38,-104 31,-105 26,-107 19,-109 z"
                     id="path3263" />
                </g>
                <g
                   id="g3265" />
              </g>
            </g>
            <g
               id="g3267">
              <desc
                 id="desc3269">Drawing</desc>
              <g
                 id="g3271">
                <g
                   id="g3273"
                   style="fill:#1b448e;stroke:none">
                  <path
                     d="m 7711,7759 31,-189 22,-198 9,-203 -4,-205 -21,-201 -17,-99 -21,-97 -27,-93 -33,-91 -37,-86 -44,-83 -65,17 -68,14 -70,13 -71,10 -141,13 -68,3 -64,1 -540,1171 -292,574 -320,560 -98,161 -113,166 -248,331 -242,293 -191,214 110,32 109,24 110,17 110,10 109,2 108,-4 107,-10 107,-16 104,-23 103,-28 100,-34 98,-39 96,-44 93,-49 90,-53 86,-58 109,-81 103,-85 97,-90 92,-95 168,-202 147,-215 125,-227 105,-237 84,-243 63,-248 z"
                     id="path3275" />
                </g>
                <g
                   id="g3277" />
              </g>
            </g>
            <g
               id="g3279">
              <desc
                 id="desc3281">Drawing</desc>
              <g
                 id="g3283">
                <g
                   id="g3285"
                   style="fill:#1b448e;stroke:none">
                  <path
                     d="m 7153,5893 225,-23 -154,-96 -71,119 z"
                     id="path3287" />
                </g>
                <g
                   id="g3289" />
              </g>
            </g>
            <g
               id="g3291">
              <desc
                 id="desc3293">Drawing</desc>
              <g
                 id="g3295">
                <g
                   id="g3297"
                   style="fill:#1b448e;stroke:none">
                  <path
                     d="m 6464,5489 0,0 0,0 0,0 0,0 0,0 0,0 -2,-1 -5,-3 -9,-4 -14,-5 -18,-6 -22,-5 -28,-6 -33,-5 -39,-7 -19,-2 -18,-2 -17,0 -17,1 -17,2 -16,3 -15,5 -15,6 -14,7 -14,9 -13,10 -12,11 -12,13 -12,15 -8,11 -7,11 -7,10 -5,10 -4,10 -3,10 -2,10 -1,10 0,9 1,9 2,9 3,9 3,9 5,9 5,9 6,9 8,17 9,15 10,14 12,13 12,12 14,10 14,10 15,9 31,15 31,14 30,13 28,13 179,-345 z"
                     id="path3299" />
                </g>
                <g
                   id="g3301" />
              </g>
            </g>
            <g
               id="g3303">
              <desc
                 id="desc3305">Drawing</desc>
              <g
                 id="g3307">
                <g
                   id="g3309"
                   style="fill:#1b448e;stroke:none">
                  <path
                     d="m 4860,8899 -35,-30 -33,-31 -30,-33 -29,-34 -26,-36 -24,-36 -22,-38 -20,-39 -17,-41 -15,-40 -12,-42 -10,-43 -7,-43 -5,-43 -2,-45 1,-44 -55,51 -49,56 -44,59 -39,63 -33,66 -27,69 -22,72 -16,75 -9,47 -6,46 -1,45 1,45 5,44 7,44 11,43 13,43 16,42 18,42 42,81 50,79 55,77 36,-36 176,-263 82,-133 38,-69 37,-70 z"
                     id="path3311" />
                </g>
                <g
                   id="g3313" />
              </g>
            </g>
            <g
               id="g3315">
              <desc
                 id="desc3317">Drawing</desc>
              <g
                 id="g3319">
                <g
                   id="g3321"
                   style="fill:#1b448e;stroke:none">
                  <path
                     d="m 13699,6024 35,-166 23,-159 11,-149 -2,-138 -5,-64 -9,-61 -12,-56 -15,-53 -19,-48 -23,-43 -26,-39 -29,-34 -2,-1 -2,-1 -3,0 -3,1 -8,3 -9,6 -23,17 -28,25 -65,66 -72,79 -131,151 -42,51 -12,14 -3,4 -1,1 0,0 0,0 0,0 0,0 -300,424 -138,217 -128,222 -115,226 -99,233 -83,238 -64,246 -24,130 -8,67 -3,67 1,33 2,33 5,33 7,31 10,31 12,30 16,29 18,27 14,14 15,13 17,10 17,8 18,7 18,4 20,3 19,2 20,0 19,-2 19,-3 19,-4 19,-6 18,-6 17,-8 16,-8 40,-18 40,-23 40,-27 39,-30 78,-71 75,-81 72,-88 68,-90 119,-178 150,-277 141,-280 64,-143 59,-144 52,-147 44,-150 z"
                     id="path3323" />
                </g>
                <g
                   id="g3325" />
              </g>
            </g>
          </g>
        </g>
      </g>
    </g>
  </g>
</svg>
